<?xml version="1.0" encoding="UTF-8" standalone="no"?>
<!DOCTYPE svg PUBLIC "-//W3C//DTD SVG 1.1//EN" "http://www.w3.org/Graphics/SVG/1.1/DTD/svg11.dtd">
<svg xmlns="http://www.w3.org/2000/svg" xmlns:xlink="http://www.w3.org/1999/xlink" version="1.1" width="768pt" height="768pt" viewBox="0 0 768 768">
<g enable-background="new">
<clipPath id="cp0">
<path transform="matrix(.24,0,0,.24,0,0)" d="M 0 0 L 3200 0 L 3200 3231.25 L 0 3231.25 Z " fill-rule="evenodd"/>
</clipPath>
<g clip-path="url(#cp0)">
<path transform="matrix(.75,0,0,.75,0,0)" d="M 0 0 L 1024 0 L 1024 1034 L 0 1034 Z " fill="#ffffff"/>
</g>
<clipPath id="cp1">
<path transform="matrix(.24,0,0,.24,0,0)" d="M 0 0 L 3200 0 L 3200 3200 L 0 3200 Z " fill-rule="evenodd"/>
</clipPath>
<g clip-path="url(#cp1)">
<path transform="matrix(.75,0,0,.75,0,0)" d="M 0 0 L 1024 0 L 1024 1024 L 0 1024 Z " fill="#ffffff"/>
</g>
<clipPath id="cp2">
<path transform="matrix(.24,0,0,.24,0,0)" d="M 0 0 L 3200 0 L 3200 3200 L 0 3200 Z " fill-rule="evenodd"/>
</clipPath>
<g clip-path="url(#cp2)">
<path transform="matrix(.75,0,0,.75,0,0)" d="M 0 0 L 1024 0 L 1024 1024 L 0 1024 Z " fill="#639eb2"/>
</g>
<clipPath id="cp3">
<path transform="matrix(.24,0,0,.24,0,0)" d="M 0 0 L 3200 0 L 3200 3200 L 0 3200 Z " fill-rule="evenodd"/>
</clipPath>
<g clip-path="url(#cp3)">
<g id="Layer-1" data-name="P">
</g>
<symbol id="font_4_58">
<path d="M .0009999983 .397 C .0009999983 .44633333 .021999998 .4876667 .063999999 .521 C .106000009 .5543334 .16266668 .57100006 .23400001 .57100006 C .30600003 .57100006 .364 .5546667 .40800003 .5220001 C .45200003 .4893334 .47533337 .4446667 .478 .388 L .303 .388 C .301 .40733338 .29433335 .42033337 .283 .42700003 C .27166669 .43433336 .25466667 .43800006 .23200001 .43800003 C .18733335 .43800006 .165 .42433334 .165 .397 C .165 .37233339 .19233334 .35533334 .24700003 .34600003 C .30233336 .33666668 .3526667 .32233335 .398 .303 C .4213333 .2936667 .44066669 .278 .456 .256 C .472 .23466666 .48000003 .20833333 .48000003 .177 C .48000003 .125 .45766668 .082333337 .41300003 .049000004 C .36833335 .016333335 .312 .0000000004656613 .244 .0000000004656613 C .176 .0000000004656613 .119333337 .015333333 .074 .046 C .028666668 .07733334 .0040000008 .123333338 0 .184 L .17500001 .184 C .17966669 .14999999 .20366669 .133 .24700003 .133 C .26700003 .133 .28333334 .13766666 .296 .147 C .30933336 .15633334 .316 .16833335 .316 .18300002 C .316 .19766669 .305 .20933335 .283 .21800001 C .26166667 .22666668 .23566668 .23400001 .20500002 .24000001 C .17433334 .246 .14333333 .25333337 .112 .26200003 C .08133333 .27133338 .055000005 .28700004 .033000005 .30900003 C .011666667 .33166669 .0009999983 .36100004 .0009999983 .397 Z "/>
</symbol>
<symbol id="font_4_46">
<path d="M .381 .184 C .40566669 .208 .418 .24200003 .418 .286 C .418 .33 .40566669 .36366669 .381 .38700003 C .35633336 .411 .328 .423 .296 .423 C .264 .423 .23566668 .411 .211 .38700003 C .18633335 .363 .17399998 .32900004 .174 .28500004 C .17399998 .24100001 .18633335 .20700002 .211 .18300002 C .23566668 .15966667 .264 .148 .296 .148 C .328 .148 .35633336 .16000001 .381 .184 M .074 .080000009 C .024666667 .13333334 0 .20166667 0 .28500004 C 0 .36833335 .024666667 .4366667 .074 .49 C .123333338 .544 .18333334 .57100006 .254 .57100006 C .32533334 .57100006 .38 .5446667 .418 .492 L .418 .56500008 L .58900007 .56500008 L .58900007 .0070000009 L .418 .0070000009 L .418 .088 C .37666667 .029333333 .32133333 .0000000004656613 .252 .0000000004656613 C .18266666 .0000000004656613 .123333338 .02666667 .074 .080000009 Z "/>
</symbol>
<symbol id="font_4_4b">
<path d="M .294 .558 L .294 .416 L .223 .416 L .223 0 L .05200001 0 L .05200001 .416 L 0 .416 L 0 .558 L .05200001 .558 L .05200001 .57900008 C .052000006 .6496667 .07066667 .70133337 .108 .734 C .14600002 .7666667 .20533335 .78300008 .286 .78300008 L .286 .638 C .26333336 .638 .24700003 .6336667 .23700002 .625 C .22766668 .61633339 .223 .6010001 .223 .57900008 L .223 .558 L .294 .558 Z "/>
</symbol>
<symbol id="font_4_4a">
<path d="M .278 .0000000004656613 C .19666668 .0000000004656613 .13000001 .026 .078 .078 C .026 .13066668 0 .20033334 0 .287 C 0 .37366668 .025666669 .44266669 .07700001 .49400003 C .12900001 .5453334 .196 .57100006 .278 .57100006 C .36 .57100006 .428 .5456667 .48200003 .49500004 C .536 .44433335 .563 .37400005 .563 .284 C .563 .26466669 .5616667 .24666669 .5590001 .23 L .17500001 .23 C .17833334 .20533334 .18933334 .185 .208 .169 C .22666668 .15366668 .24666667 .14600002 .268 .14600002 C .29 .14600002 .30633334 .14800002 .317 .15200001 C .32766668 .15666668 .33533336 .16100002 .34 .165 C .34533335 .16966667 .352 .177 .36 .187 L .5450001 .187 C .52900007 .131 .497 .085666667 .449 .051000004 C .40100003 .017 .344 .0000000004656613 .278 .0000000004656613 M .38500003 .337 C .38233338 .363 .37100003 .38400004 .351 .4 C .331 .41666667 .30733336 .42500005 .28 .425 C .25266669 .42500005 .22966667 .41666667 .211 .4 C .19233334 .38400004 .18066667 .363 .176 .337 L .38500003 .337 Z "/>
</symbol>
<use xlink:href="#font_4_58" transform="matrix(159.77365,0,0,-159.77365,218.32617,142.96065)" fill="#dc1d00"/>
<use xlink:href="#font_4_46" transform="matrix(159.77365,0,0,-159.77365,302.68113,142.96065)" fill="#dc1d00"/>
<use xlink:href="#font_4_4b" transform="matrix(159.77365,0,0,-159.77365,408.76387,141.84224)" fill="#dc1d00"/>
<use xlink:href="#font_4_4a" transform="matrix(159.77365,0,0,-159.77365,459.88804,142.96065)" fill="#dc1d00"/>
<g id="Layer-1" data-name="P">
</g>
<symbol id="font_4_59">
<path d="M .275 .14500001 L .33600004 .14500001 L .33600004 0 L .24900002 0 C .18633335 0 .13766666 .013666667 .103 .041 C .069 .069000009 .052 .116666678 .052 .18400002 L .052 .416 L 0 .416 L 0 .558 L .052 .558 L .052 .694 L .22300002 .694 L .22300002 .558 L .335 .558 L .335 .416 L .22300002 .416 L .22300002 .18400002 C .223 .158 .24033337 .14500001 .275 .14500001 Z "/>
</symbol>
<symbol id="font_4_54">
<path d="M .37500004 .18200001 C .3976667 .20600002 .40900005 .24066668 .40900005 .286 C .40900005 .33133335 .39733339 .36566667 .374 .38900004 C .35066668 .41300003 .323 .42500005 .291 .425 C .25900004 .42500005 .23133336 .41300003 .20800002 .38900004 C .18533336 .36566667 .17400001 .33133335 .17400001 .286 C .17400001 .24066668 .18566668 .20600002 .20900002 .18200001 C .233 .158 .261 .14600002 .293 .14600002 C .32500003 .14600002 .35233335 .158 .37500004 .18200001 M .08400001 .079 C .028000003 .13166668 0 .20100002 0 .287 C 0 .373 .028000003 .4416667 .08400001 .49300004 C .14 .545 .20933335 .57100006 .29200004 .57100006 C .3746667 .57100006 .4436667 .545 .49900005 .49300004 C .555 .4416667 .583 .373 .583 .287 C .583 .20100002 .5553333 .13166668 .5 .079 C .4446667 .026333334 .3756667 .0000000004656613 .293 .0000000004656613 C .21033335 .0000000004656613 .14066668 .026333334 .08400001 .079 Z "/>
</symbol>
<use xlink:href="#font_4_59" transform="matrix(159.77365,0,0,-159.77365,306.59413,364.79389)" fill="#dc1d00"/>
<use xlink:href="#font_4_54" transform="matrix(159.77365,0,0,-159.77365,368.58213,365.9123)" fill="#dc1d00"/>
<g id="Layer-1" data-name="P">
</g>
<use xlink:href="#font_4_4a" transform="matrix(159.77365,0,0,-159.77365,254.03012,588.8639)" fill="#dc1d00"/>
<use xlink:href="#font_4_46" transform="matrix(159.77365,0,0,-159.77365,351.0064,588.8639)" fill="#dc1d00"/>
<use xlink:href="#font_4_59" transform="matrix(159.77365,0,0,-159.77365,459.0064,587.7455)" fill="#dc1d00"/>
<g id="Layer-1" data-name="P">
</g>
<symbol id="font_5_82">
<path d="M .16894531 0 C .13444011 0 .10449219 .0063476564 .07910156 .019042969 C .053710939 .03173828 .034179689 .05029297 .020507813 .07470703 C .0068359377 .09944662 0 .12906902 0 .16357422 C 0 .19547527 .0068359377 .22216797 .020507813 .24365235 C .034179689 .26546226 .055338544 .28320313 .083984378 .296875 C .11263021 .3108724 .15006511 .3216146 .19628906 .32910157 C .22851563 .3343099 .2529297 .3400065 .26953126 .3461914 C .28645835 .3523763 .29785157 .359375 .30371095 .3671875 C .3095703 .375 .3125 .38492839 .3125 .39697267 C .3125 .41422526 .30647788 .42740885 .2944336 .43652345 C .2823893 .44563804 .26236979 .4501953 .234375 .4501953 C .20442708 .4501953 .17594402 .44352214 .14892578 .43017579 C .121907558 .41682945 .098470058 .3992513 .07861328 .3774414 L .068847659 .3774414 L .012207031 .46289063 C .03955078 .49316407 .072916667 .51676437 .11230469 .5336914 C .1516927 .55061849 .19466146 .55908206 .24121094 .55908206 C .3125 .55908206 .36409507 .5439453 .3959961 .5136719 C .42789714 .48339845 .44384767 .4404297 .44384767 .38476563 L .44384767 .1508789 C .44384767 .12679036 .4544271 .114746097 .47558595 .114746097 C .48372398 .114746097 .49169923 .11621094 .49951173 .119140628 L .50634768 .1171875 L .5161133 .022949219 C .5086263 .018066407 .49820964 .0139973959 .48486329 .0107421879 C .47151695 .0078125 .4568685 .0063476564 .44091798 .0063476564 C .4086914 .0063476564 .38346354 .012532552 .36523438 .024902344 C .34733073 .037272138 .33447267 .056640626 .32666017 .08300781 L .31640626 .083984378 C .29003907 .027994791 .24088542 0 .16894531 0 M .21191406 .10107422 C .24316406 .10107422 .2680664 .11149088 .2866211 .13232422 C .3055013 .15348308 .3149414 .18277996 .3149414 .22021485 L .3149414 .27490235 L .30566407 .27685548 C .29752604 .27034507 .28678385 .2648112 .2734375 .2602539 C .26041667 .25602214 .24153646 .25179038 .21679688 .2475586 C .1875 .24267578 .16634114 .23421224 .15332031 .22216797 C .140625 .21044922 .13427735 .19368489 .13427735 .171875 C .13427735 .14876302 .14111328 .13118489 .15478516 .119140628 C .16845703 .10709635 .1875 .10107422 .21191406 .10107422 Z "/>
</symbol>
<symbol id="font_5_1">
<path d="M 0 0 Z "/>
</symbol>
<symbol id="font_5_d6">
<path d="M 0 0 L 0 .75683596 L .1352539 .75683596 L .1352539 .68652346 L .14550781 .6845703 C .16145833 .71191409 .18277996 .7324219 .20947266 .74609377 C .23616536 .7600911 .26741538 .76708987 .30322267 .76708987 C .34651695 .76708987 .38427735 .75683596 .4165039 .7363281 C .449056 .7158203 .47428385 .6845703 .4921875 .6425781 C .5104167 .60091146 .51953127 .5491536 .51953127 .4873047 C .51953127 .42578126 .5099284 .3741862 .49072267 .33251954 C .47184245 .29085288 .44547526 .25960288 .4116211 .23876953 C .37776695 .21826172 .33870445 .20800781 .2944336 .20800781 C .26090495 .20800781 .2319336 .21354167 .20751953 .22460938 C .18310547 .23600261 .16243489 .25358073 .14550781 .27734376 L .1352539 .27539063 L .1352539 0 L 0 0 M .25683595 .3227539 C .29720054 .3227539 .32779948 .3359375 .3486328 .3623047 C .36946617 .38867188 .3798828 .43033854 .3798828 .4873047 C .3798828 .5442708 .36946617 .5859375 .3486328 .6123047 C .32779948 .6389974 .29720054 .65234377 .25683595 .65234377 C .21907552 .65234377 .18912761 .6386719 .16699219 .6113281 C .14485677 .5839844 .13378906 .54264327 .13378906 .4873047 C .13378906 .43229167 .14485677 .39111329 .16699219 .36376954 C .18912761 .33642579 .21907552 .3227539 .25683595 .3227539 Z "/>
</symbol>
<symbol id="font_5_cb">
<path d="M .26464845 0 C .21191406 0 .16552735 .0107421879 .12548828 .032226564 C .08577474 .054036458 .05485026 .08577474 .032714845 .1274414 C .010904948 .1694336 0 .22005208 0 .27929688 C 0 .33854167 .010904948 .38916017 .032714845 .43115235 C .05485026 .47314454 .08577474 .5048828 .12548828 .5263672 C .16552735 .54817709 .21191406 .55908206 .26464845 .55908206 C .3173828 .55908206 .36360679 .54817709 .4033203 .5263672 C .44335938 .5048828 .47444663 .47314454 .49658204 .43115235 C .51871749 .38916017 .52978518 .33854167 .52978518 .27929688 C .52978518 .22005208 .51871749 .1694336 .49658204 .1274414 C .47444663 .08577474 .44335938 .054036458 .4033203 .032226564 C .36360679 .0107421879 .3173828 0 .26464845 0 M .26464845 .114746097 C .34830729 .114746097 .39013673 .16959636 .39013673 .27929688 C .39013673 .33626304 .37939454 .3779297 .35791017 .40429688 C .33642579 .4309896 .30533854 .44433595 .26464845 .44433595 C .18098958 .44433595 .13916016 .3893229 .13916016 .27929688 C .13916016 .16959636 .18098958 .114746097 .26464845 .114746097 Z "/>
</symbol>
<symbol id="font_5_95">
<path d="M .21777344 0 C .1751302 0 .1373698 .010253906 .10449219 .030761719 C .0719401 .05159505 .04638672 .082845058 .027832032 .12451172 C .009277344 .1665039 0 .21809896 0 .27929688 C 0 .3408203 .0094401049 .39241538 .028320313 .43408204 C .047526044 .47607423 .07389323 .5073242 .107421878 .52783206 C .14127605 .54866537 .18033855 .55908206 .22460938 .55908206 C .25813804 .55908206 .28710938 .55322268 .31152345 .5415039 C .33626304 .53011068 .35709635 .51220706 .37402345 .48779298 L .38427735 .49023438 L .38427735 .7651367 L .51953127 .7651367 L .51953127 .010253906 L .38427735 .010253906 L .38427735 .080078128 L .37402345 .08203125 C .35904948 .056640626 .33854167 .036621095 .3125 .021972657 C .28645835 .0073242189 .2548828 0 .21777344 0 M .26171876 .114746097 C .2998047 .114746097 .32991538 .1282552 .35205079 .15527344 C .3741862 .18261719 .3852539 .22395833 .3852539 .27929688 C .3852539 .3346354 .3741862 .37597657 .35205079 .4033203 C .32991538 .43066407 .2998047 .44433595 .26171876 .44433595 C .2220052 .44433595 .19156902 .4309896 .17041016 .40429688 C .14957683 .3779297 .13916016 .33626304 .13916016 .27929688 C .13916016 .22265625 .14957683 .18098958 .17041016 .15429688 C .19156902 .12792969 .2220052 .114746097 .26171876 .114746097 Z "/>
</symbol>
<symbol id="font_5_8f">
<path d="M .265625 0 C .21354167 0 .16748047 .0107421879 .1274414 .032226564 C .087402347 .054036458 .056152345 .0859375 .033691408 .12792969 C .011230469 .16992188 0 .22037761 0 .27929688 C 0 .33854167 .011230469 .38916017 .033691408 .43115235 C .056152345 .47314454 .087239589 .5048828 .12695313 .5263672 C .16666667 .54817709 .21207683 .55908206 .2631836 .55908206 C .37679038 .55908206 .44954429 .5179036 .4814453 .43554688 L .38867188 .36914063 L .37841798 .36914063 C .36735026 .39453126 .3528646 .41341148 .33496095 .42578126 C .3173828 .43815104 .29345704 .44433595 .2631836 .44433595 C .2241211 .44433595 .19368489 .4308268 .171875 .4038086 C .15006511 .37679038 .13916016 .33528648 .13916016 .27929688 C .13916016 .22395833 .15022786 .18261719 .17236328 .15527344 C .1944987 .1282552 .22558594 .114746097 .265625 .114746097 C .29492188 .114746097 .31966148 .122558597 .33984376 .1381836 C .36035157 .15413411 .375 .17692058 .38378907 .20654297 L .39404298 .20751953 L .49023438 .15478516 C .4765625 .10921224 .45117188 .0719401 .4140625 .04296875 C .37727867 .014322917 .32779948 0 .265625 0 Z "/>
</symbol>
<symbol id="font_5_dd">
<path d="M .22753906 0 C .1907552 0 .1570638 .004231771 .12646485 .0126953129 C .09586588 .021484375 .06966146 .033365888 .047851564 .048339845 C .026367188 .06363932 .010416667 .08105469 0 .10058594 L .07519531 .18164063 L .08544922 .18164063 C .10335287 .15755208 .12451172 .13948567 .14892578 .1274414 C .17333985 .11539713 .1998698 .109375 .22851563 .109375 C .2548828 .109375 .2747396 .114095058 .28808595 .123535159 C .30143229 .13297527 .30810548 .14648438 .30810548 .1640625 C .30810548 .17773438 .30322267 .18912761 .29345704 .19824219 C .28401695 .2076823 .2685547 .21500652 .24707031 .22021485 L .17578125 .23730469 C .122395839 .25 .083333339 .2693685 .05859375 .29541017 C .034179689 .32177735 .021972657 .35514323 .021972657 .3955078 C .021972657 .42903648 .030436198 .45817057 .04736328 .48291017 C .06461588 .5076497 .08870443 .52652999 .119628909 .5395508 C .1508789 .5525716 .18717449 .55908206 .22851563 .55908206 C .27701823 .55908206 .31722007 .5520833 .3491211 .53808596 C .38102214 .52408859 .40592448 .5053711 .42382813 .4819336 L .3515625 .4038086 L .34179688 .4038086 C .3268229 .4207357 .30989585 .43310548 .29101563 .44091798 C .27246095 .44873048 .2516276 .45263673 .22851563 .45263673 C .1751302 .45263673 .1484375 .43603517 .1484375 .40283204 C .1484375 .38883464 .15332031 .3774414 .16308594 .36865235 C .17317708 .35986329 .1907552 .3527018 .21582031 .34716798 L .28222657 .33251954 C .33691407 .32080079 .37679038 .30192057 .40185548 .2758789 C .4272461 .25016276 .4399414 .2154948 .4399414 .171875 C .4399414 .13769531 .43147788 .10758463 .41455079 .08154297 C .3976237 .0555013 .37320964 .03531901 .3413086 .020996094 C .30940757 .0069986979 .27148438 0 .22753906 0 Z "/>
</symbol>
<symbol id="font_5_e4">
<path d="M .35546876 .13867188 L .390625 .03857422 C .37597657 .026529948 .35758464 .017089844 .33544923 .010253906 C .3133138 .0034179688 .2882487 0 .2602539 0 C .20198567 0 .15771485 .01578776 .1274414 .04736328 C .09716797 .07926432 .08203125 .12548828 .08203125 .18603516 L .08203125 .44189454 L 0 .44189454 L 0 .5493164 L .08203125 .5493164 L .08203125 .6542969 L .21728516 .67626956 L .21728516 .5493164 L .3701172 .5493164 L .3701172 .44189454 L .21728516 .44189454 L .21728516 .19580078 C .21728516 .16910808 .22281902 .14957683 .23388672 .13720703 C .24495442 .12516277 .26106773 .119140628 .28222657 .119140628 C .3063151 .119140628 .3273112 .12565105 .34521485 .13867188 L .35546876 .13867188 Z "/>
</symbol>
<symbol id="font_5_d9">
<path d="M 0 0 L 0 .5385742 L .13134766 .5385742 L .13134766 .4584961 L .14160156 .45654298 C .15462239 .48649089 .17171224 .50846359 .1928711 .52246096 C .21402996 .5364583 .2397461 .54345706 .27001954 .54345706 C .3006185 .54345706 .32389323 .5382487 .33984376 .52783206 L .31689454 .4111328 L .30664063 .4091797 C .29785157 .4127604 .28938804 .4153646 .28125 .4169922 C .27311198 .41861979 .2631836 .4194336 .25146485 .4194336 C .21370442 .4194336 .18489583 .40608726 .16503906 .37939454 C .1451823 .35302735 .1352539 .31054688 .1352539 .25195313 L .1352539 0 L 0 0 Z "/>
</symbol>
<symbol id="font_5_99">
<path d="M .48388673 .24902344 L .13769531 .24902344 C .14160156 .20214844 .15494792 .16796875 .17773438 .14648438 C .20052083 .12532552 .23160808 .114746097 .2709961 .114746097 C .30192057 .114746097 .3269857 .12044271 .3461914 .13183594 C .36539714 .14355469 .38085938 .16113281 .39257813 .18457031 L .40283204 .18457031 L .49267579 .12695313 C .47509767 .08919271 .44856773 .05859375 .41308595 .03515625 C .37760417 .01171875 .33024089 0 .2709961 0 C .21533203 0 .16715496 .010579427 .12646485 .03173828 C .08610026 .052897138 .05485026 .0843099 .032714845 .12597656 C .010904948 .16796875 0 .21907552 0 .27929688 C 0 .34049479 .011555989 .39208985 .03466797 .43408204 C .05777995 .47607423 .089029949 .5073242 .12841797 .52783206 C .16780599 .54866537 .21207683 .55908206 .26123048 .55908206 C .33740235 .55908206 .39567057 .5388997 .43603517 .49853517 C .47672526 .45817057 .4970703 .39892579 .4970703 .32080079 C .4970703 .29248048 .49609376 .2705078 .49414063 .2548828 L .48388673 .24902344 M .36767579 .33642579 C .3663737 .3774414 .35677085 .40722657 .3388672 .42578126 C .32128907 .44466148 .29541017 .45410157 .26123048 .45410157 C .1928711 .45410157 .15266927 .4148763 .140625 .33642579 L .36767579 .33642579 Z "/>
</symbol>
<symbol id="font_5_ac">
<path d="M .08251953 .60302737 C .05810547 .60302737 .0382487 .61035159 .022949219 .625 C .0076497399 .63997396 0 .6591797 0 .6826172 C 0 .7057292 .0076497399 .7246094 .022949219 .7392578 C .0382487 .75423178 .05810547 .76171877 .08251953 .76171877 C .09879557 .76171877 .11328125 .7583008 .12597656 .75146487 C .13867188 .7446289 .1484375 .7351888 .15527344 .72314456 C .16243489 .7114258 .16601563 .6979167 .16601563 .6826172 C .16601563 .6673177 .16243489 .6536458 .15527344 .64160159 C .1484375 .6295573 .13867188 .6201172 .12597656 .61328127 C .11328125 .6064453 .09879557 .60302737 .08251953 .60302737 M .015136719 0 L .015136719 .5385742 L .15039063 .5385742 L .15039063 0 L .015136719 0 Z "/>
</symbol>
<symbol id="font_5_c5">
<path d="M 0 0 L 0 .5385742 L .12988281 .5385742 L .12988281 .45947267 L .14013672 .45703126 C .17366536 .5182292 .22802735 .5488281 .30322267 .5488281 C .36539714 .5488281 .41097007 .53190109 .4399414 .49804688 C .46923829 .46419273 .48388673 .4148763 .48388673 .35009767 L .48388673 0 L .3486328 0 L .3486328 .3334961 C .3486328 .36930339 .34147135 .39501954 .32714845 .41064454 C .31282554 .42659507 .2898763 .4345703 .25830079 .4345703 C .2195638 .4345703 .18929036 .42203776 .16748047 .39697267 C .1459961 .37190757 .1352539 .33251954 .1352539 .2788086 L .1352539 0 L 0 0 Z "/>
</symbol>
<symbol id="font_5_b8">
<path d="M .19873047 .83154299 C .1743164 .83154299 .15445964 .8388672 .13916016 .8535156 C .12386068 .86848959 .11621094 .8876953 .11621094 .9111328 C .11621094 .9342448 .12386068 .953125 .13916016 .96777346 C .15445964 .9827474 .1743164 .9902344 .19873047 .9902344 C .21500652 .9902344 .22949219 .9868164 .2421875 .97998049 C .2548828 .97314456 .26464845 .9637044 .27148438 .95166018 C .27864585 .9399414 .28222657 .9264323 .28222657 .9111328 C .28222657 .8958333 .27864585 .88216146 .27148438 .8701172 C .26464845 .85807296 .2548828 .8486328 .2421875 .8417969 C .22949219 .83496096 .21500652 .83154299 .19873047 .83154299 M .095703128 0 C .055989583 0 .024088541 .0052083337 0 .015625 L .016601563 .12207031 L .025878907 .125 C .03889974 .1188151 .05419922 .115722659 .071777347 .115722659 C .11149088 .115722659 .13134766 .13916016 .13134766 .18603516 L .13134766 .76708987 L .26660157 .76708987 L .26660157 .1899414 C .26660157 .12711589 .25211589 .0797526 .22314453 .047851564 C .19417317 .015950522 .1516927 0 .095703128 0 Z "/>
</symbol>
<use xlink:href="#font_5_82" transform="matrix(42,0,0,-42,70.37109,678.1307)" fill="#dc1d00"/>
<use xlink:href="#font_5_1" transform="matrix(42,0,0,-42,92.50444,677.7)" fill="#dc1d00"/>
<use xlink:href="#font_5_d6" transform="matrix(42,0,0,-42,105.677188,686.867)" fill="#dc1d00"/>
<use xlink:href="#font_5_cb" transform="matrix(42,0,0,-42,131.53672,678.1307)" fill="#dc1d00"/>
<use xlink:href="#font_5_95" transform="matrix(42,0,0,-42,157.82872,678.1307)" fill="#dc1d00"/>
<use xlink:href="#font_5_8f" transform="matrix(42,0,0,-42,184.96073,678.1307)" fill="#dc1d00"/>
<use xlink:href="#font_5_82" transform="matrix(42,0,0,-42,207.96309,678.1307)" fill="#dc1d00"/>
<use xlink:href="#font_5_dd" transform="matrix(42,0,0,-42,231.12183,678.1307)" fill="#dc1d00"/>
<use xlink:href="#font_5_e4" transform="matrix(42,0,0,-42,251.6472,678.1307)" fill="#dc1d00"/>
<use xlink:href="#font_5_1" transform="matrix(42,0,0,-42,268.52644,677.7)" fill="#dc1d00"/>
<use xlink:href="#font_5_82" transform="matrix(42,0,0,-42,280.1611,678.1307)" fill="#dc1d00"/>
<use xlink:href="#font_5_d6" transform="matrix(42,0,0,-42,305.55519,686.867)" fill="#dc1d00"/>
<use xlink:href="#font_5_d6" transform="matrix(42,0,0,-42,332.6452,686.867)" fill="#dc1d00"/>
<use xlink:href="#font_5_d9" transform="matrix(42,0,0,-42,359.73518,677.7)" fill="#dc1d00"/>
<use xlink:href="#font_5_99" transform="matrix(42,0,0,-42,376.2287,678.1307)" fill="#dc1d00"/>
<use xlink:href="#font_5_8f" transform="matrix(42,0,0,-42,400.7987,678.1307)" fill="#dc1d00"/>
<use xlink:href="#font_5_ac" transform="matrix(42,0,0,-42,424.70344,677.7)" fill="#dc1d00"/>
<use xlink:href="#font_5_82" transform="matrix(42,0,0,-42,435.98109,678.1307)" fill="#dc1d00"/>
<use xlink:href="#font_5_e4" transform="matrix(42,0,0,-42,458.79118,678.1307)" fill="#dc1d00"/>
<use xlink:href="#font_5_ac" transform="matrix(42,0,0,-42,478.2954,677.7)" fill="#dc1d00"/>
<use xlink:href="#font_5_cb" transform="matrix(42,0,0,-42,489.88069,678.1307)" fill="#dc1d00"/>
<use xlink:href="#font_5_c5" transform="matrix(42,0,0,-42,517.4032,677.7)" fill="#dc1d00"/>
<use xlink:href="#font_5_1" transform="matrix(42,0,0,-42,540.6444,677.7)" fill="#dc1d00"/>
<use xlink:href="#font_5_d6" transform="matrix(42,0,0,-42,553.8172,686.867)" fill="#dc1d00"/>
<use xlink:href="#font_5_d9" transform="matrix(42,0,0,-42,580.90719,677.7)" fill="#dc1d00"/>
<use xlink:href="#font_5_cb" transform="matrix(42,0,0,-42,597.40078,678.1307)" fill="#dc1d00"/>
<use xlink:href="#font_5_b8" transform="matrix(42,0,0,-42,619.4066,687.29769)" fill="#dc1d00"/>
<use xlink:href="#font_5_99" transform="matrix(42,0,0,-42,635.87277,678.1307)" fill="#dc1d00"/>
<use xlink:href="#font_5_8f" transform="matrix(42,0,0,-42,660.44277,678.1307)" fill="#dc1d00"/>
<use xlink:href="#font_5_e4" transform="matrix(42,0,0,-42,682.39926,678.1307)" fill="#dc1d00"/>
<g id="Layer-1" data-name="P">
</g>
<symbol id="font_5_be">
<path d="M .14941406 0 C .10091146 0 .063802089 .013020833 .038085939 .0390625 C .0126953129 .06542969 0 .10530599 0 .1586914 L 0 .7651367 L .1352539 .7651367 L .1352539 .1640625 C .1352539 .13118489 .14892578 .114746097 .17626953 .114746097 C .18408203 .114746097 .19238281 .11604818 .20117188 .118652347 L .20800781 .11669922 L .22021485 .0126953129 C .21272786 .0087890629 .20279949 .0056966149 .19042969 .0034179688 C .17805989 .0011393229 .16438802 0 .14941406 0 Z "/>
</symbol>
<symbol id="font_5_c4">
<path d="M 0 0 L 0 .5385742 L .12988281 .5385742 L .12988281 .4663086 L .14013672 .46435548 C .15771485 .4933268 .17822266 .51464846 .20166016 .5283203 C .22542317 .5419922 .25569663 .5488281 .29248048 .5488281 C .33317057 .5488281 .3658854 .5406901 .390625 .52441409 C .4153646 .50846359 .433431 .48502604 .44482423 .45410157 L .45507813 .45410157 C .4716797 .48632813 .4930013 .5100911 .51904299 .5253906 C .54541018 .5410156 .578125 .5488281 .6171875 .5488281 C .7288411 .5488281 .78466799 .48665367 .78466799 .3623047 L .78466799 0 L .64941409 0 L .64941409 .34521485 C .64941409 .37679038 .6432292 .3995768 .6308594 .41357423 C .61848959 .42757163 .5986328 .4345703 .57128909 .4345703 C .4970703 .4345703 .45996095 .38492839 .45996095 .28564454 L .45996095 0 L .32470704 0 L .32470704 .34521485 C .32470704 .37679038 .31835938 .3995768 .30566407 .41357423 C .29329429 .42757163 .2734375 .4345703 .24609375 .4345703 C .21126302 .4345703 .18408203 .42285157 .16455078 .39941407 C .14501953 .3763021 .1352539 .33935548 .1352539 .28857423 L .1352539 0 L 0 0 Z "/>
</symbol>
<symbol id="font_5_1d0">
<path d="M .42871095 0 C .3408203 0 .26464845 .017252604 .20019531 .051757814 C .13574219 .0859375 .08626302 .13541667 .051757814 .20019531 C .017252604 .26497398 0 .34228517 0 .4321289 C 0 .5164388 .017578125 .5914714 .052734376 .65722659 C .087890628 .72298178 .13850911 .7742513 .20458985 .81103518 C .27067057 .84814456 .34847007 .8666992 .43798829 .8666992 C .52685549 .8666992 .60270187 .8499349 .66552737 .81640627 C .72835287 .7828776 .7760417 .73535159 .80859377 .6738281 C .8411458 .6123047 .8574219 .54020187 .8574219 .45751954 C .8574219 .4070638 .8496094 .36279298 .8339844 .32470704 C .8186849 .2866211 .7965495 .25716148 .7675781 .23632813 C .7389323 .2154948 .7054036 .20507813 .6669922 .20507813 C .59765627 .20507813 .5522461 .23063152 .5307617 .28173829 L .5214844 .28173829 C .50846359 .2553711 .49121095 .23600261 .46972657 .22363281 C .44856773 .21126302 .42220054 .20507813 .390625 .20507813 C .35416667 .20507813 .32242839 .21354167 .29541017 .23046875 C .26839195 .24772136 .24739583 .27311198 .23242188 .30664063 C .21744792 .34049479 .20996094 .3815104 .20996094 .4296875 C .20996094 .47721354 .21761067 .5179036 .23291016 .5517578 C .24820964 .585612 .2693685 .61116537 .29638673 .62841799 C .32340495 .6459961 .35432945 .65478518 .38916017 .65478518 C .41617839 .65478518 .4386393 .64990237 .45654298 .6401367 C .47444663 .6306966 .48990885 .61539718 .5029297 .5942383 L .51220706 .5957031 L .51220706 .6464844 L .63427737 .6464844 L .63427737 .35888673 C .63427737 .3194987 .648763 .2998047 .6777344 .2998047 C .6985677 .2998047 .71533206 .31233726 .72802737 .33740235 C .74104818 .36279298 .7475586 .40283204 .7475586 .45751954 C .7475586 .5555013 .72184249 .6311849 .67041018 .6845703 C .6193034 .73795577 .5418294 .76464846 .43798829 .76464846 C .3738607 .76464846 .3173828 .75113937 .2685547 .7241211 C .22005208 .6974284 .18245442 .6590169 .15576172 .6088867 C .12906902 .55875656 .115722659 .49983726 .115722659 .4321289 C .115722659 .3227539 .14274089 .24055989 .19677735 .18554688 C .2508138 .13053386 .328125 .103027347 .42871095 .103027347 C .46191407 .103027347 .49267579 .10644531 .5209961 .11328125 C .5496419 .119791667 .57438156 .12890625 .59521487 .140625 L .6044922 .140625 L .63671877 .052246095 C .62565109 .04313151 .609375 .03466797 .5878906 .026855469 C .56640627 .018717448 .5416667 .012207031 .5136719 .0073242189 C .4860026 .0024414063 .45768229 0 .42871095 0 M .42382813 .30859376 C .45117188 .30859376 .47233073 .31852214 .4873047 .3383789 C .5026042 .3582357 .5102539 .38867188 .5102539 .4296875 C .5102539 .47070313 .5026042 .50113937 .4873047 .5209961 C .47200523 .54085287 .45084635 .55078127 .42382813 .55078127 C .39518229 .55078127 .37353517 .5411784 .35888673 .52197268 C .3445638 .50309249 .33740235 .47233073 .33740235 .4296875 C .33740235 .38704429 .3445638 .35611979 .35888673 .33691407 C .37353517 .31803385 .39518229 .30859376 .42382813 .30859376 Z "/>
</symbol>
<symbol id="font_5_a4">
<path d="M .2602539 0 C .17138672 0 .10579427 .013020833 .06347656 .0390625 C .021158854 .065104167 0 .10139974 0 .14794922 C 0 .17626953 .008951823 .19954427 .026855469 .21777344 C .045084638 .23567708 .071126308 .24772136 .10498047 .25390626 L .10498047 .26416017 C .086751308 .27522788 .07356771 .2874349 .06542969 .30078126 C .057617189 .31445313 .053710939 .33024089 .053710939 .34814454 C .053710939 .3914388 .08186849 .4205729 .1381836 .43554688 L .1381836 .44580079 C .10921224 .46240235 .087402347 .48291017 .072753909 .5073242 C .05810547 .5320638 .05078125 .56184896 .05078125 .5966797 C .05078125 .632487 .05891927 .6638997 .07519531 .69091799 C .091796878 .7182617 .115885417 .7394206 .14746094 .75439456 C .17936199 .76969406 .21744792 .77734377 .26171876 .77734377 C .30664063 .77734377 .3424479 .76953127 .36914063 .75390627 C .3857422 .7779948 .39534507 .80582687 .39794923 .83740237 L .40820313 .84375 L .5053711 .8198242 C .5024414 .7941081 .49495445 .77246096 .48291017 .7548828 C .47086589 .7376302 .45214845 .72216799 .4267578 .7084961 L .4267578 .6977539 C .45703126 .6710612 .47216798 .63378909 .47216798 .5859375 C .47216798 .5527344 .4638672 .5229492 .44726563 .49658204 C .43066407 .47021485 .40641276 .4493815 .37451173 .43408204 C .3429362 .41878257 .30533854 .4111328 .26171876 .4111328 L .24121094 .4116211 C .22819011 .41227214 .21907552 .41259767 .21386719 .41259767 C .20149739 .41259767 .19173177 .4091797 .18457031 .40234376 C .17773438 .39583335 .1743164 .38736979 .1743164 .37695313 C .1743164 .3655599 .1788737 .35660807 .18798828 .35009767 C .19710286 .34391276 .21044922 .34049479 .22802735 .33984376 L .3486328 .33544923 C .46777345 .3318685 .52734377 .28059898 .52734377 .18164063 C .52734377 .14680989 .5183919 .115885417 .5004883 .08886719 C .48291017 .061523439 .4542643 .0398763 .41455079 .023925782 C .37483726 .007975261 .32340495 0 .2602539 0 M .26171876 .5058594 C .2877604 .5058594 .30810548 .5135091 .3227539 .5288086 C .33740235 .5441081 .34472657 .56591799 .34472657 .5942383 C .34472657 .6225586 .33740235 .64420577 .3227539 .6591797 C .30810548 .6744792 .2877604 .6821289 .26171876 .6821289 C .23535156 .6821289 .21500652 .6744792 .2006836 .6591797 C .18636067 .64420577 .17919922 .6225586 .17919922 .5942383 C .17919922 .56559249 .18636067 .5436198 .2006836 .5283203 C .21500652 .5133464 .23535156 .5058594 .26171876 .5058594 M .2602539 .09814453 C .30647788 .09814453 .3400065 .104654949 .36083985 .11767578 C .3819987 .13069661 .39257813 .1476237 .39257813 .16845703 C .39257813 .18538411 .38720704 .19791667 .37646485 .20605469 C .36572267 .21386719 .3486328 .21809896 .3251953 .21875 L .21875 .22363281 C .21516927 .22363281 .2117513 .22379558 .2084961 .2241211 C .2055664 .22444661 .20263672 .22460938 .19970703 .22460938 C .17692058 .22460938 .1595052 .21972656 .14746094 .20996094 C .13574219 .20019531 .12988281 .1866862 .12988281 .1694336 C .12988281 .14664714 .14078777 .12906902 .16259766 .11669922 C .18440755 .10432943 .21695964 .09814453 .2602539 .09814453 Z "/>
</symbol>
<symbol id="font_5_1a3">
<path d="M .08642578 0 C .06917318 0 .0538737 .0034179688 .040527345 .010253906 C .02750651 .017415366 .017415366 .02718099 .010253906 .03955078 C .0034179688 .051920576 0 .06591797 0 .08154297 C 0 .09716797 .0034179688 .11116537 .010253906 .123535159 C .017415366 .13590496 .02750651 .14567058 .040527345 .15283203 C .0538737 .15999349 .06917318 .16357422 .08642578 .16357422 C .104003909 .16357422 .11930338 .15999349 .13232422 .15283203 C .14567058 .1459961 .15576172 .13639324 .16259766 .12402344 C .16975911 .11165365 .17333985 .09765625 .17333985 .08203125 C .17333985 .05826823 .16536458 .03857422 .14941406 .022949219 C .13378906 .0076497399 .11279297 0 .08642578 0 Z "/>
</symbol>
<use xlink:href="#font_5_82" transform="matrix(42,0,0,-42,172.69922,736.6307)" fill="#dc1d00"/>
<use xlink:href="#font_5_be" transform="matrix(42,0,0,-42,197.94977,736.6307)" fill="#dc1d00"/>
<use xlink:href="#font_5_c4" transform="matrix(42,0,0,-42,211.11333,736.2)" fill="#dc1d00"/>
<use xlink:href="#font_5_82" transform="matrix(42,0,0,-42,248.71926,736.6307)" fill="#dc1d00"/>
<use xlink:href="#font_5_d9" transform="matrix(42,0,0,-42,274.11335,736.2)" fill="#dc1d00"/>
<use xlink:href="#font_5_e4" transform="matrix(42,0,0,-42,289.25337,736.6307)" fill="#dc1d00"/>
<use xlink:href="#font_5_ac" transform="matrix(42,0,0,-42,308.7576,736.2)" fill="#dc1d00"/>
<use xlink:href="#font_5_c5" transform="matrix(42,0,0,-42,321.57334,736.2)" fill="#dc1d00"/>
<use xlink:href="#font_5_1d0" transform="matrix(42,0,0,-42,347.04994,742.61898)" fill="#dc1d00"/>
<use xlink:href="#font_5_a4" transform="matrix(42,0,0,-42,385.85038,745.79769)" fill="#dc1d00"/>
<use xlink:href="#font_5_c4" transform="matrix(42,0,0,-42,411.8313,736.2)" fill="#dc1d00"/>
<use xlink:href="#font_5_82" transform="matrix(42,0,0,-42,449.43724,736.6307)" fill="#dc1d00"/>
<use xlink:href="#font_5_ac" transform="matrix(42,0,0,-42,474.19557,736.2)" fill="#dc1d00"/>
<use xlink:href="#font_5_be" transform="matrix(42,0,0,-42,486.86775,736.6307)" fill="#dc1d00"/>
<use xlink:href="#font_5_1a3" transform="matrix(42,0,0,-42,498.92387,736.3846)" fill="#dc1d00"/>
<use xlink:href="#font_5_8f" transform="matrix(42,0,0,-42,510.39283,736.6307)" fill="#dc1d00"/>
<use xlink:href="#font_5_cb" transform="matrix(42,0,0,-42,533.7028,736.6307)" fill="#dc1d00"/>
<use xlink:href="#font_5_c4" transform="matrix(42,0,0,-42,561.22537,736.2)" fill="#dc1d00"/>
</g>
</g>
</svg>
